PathFileType	4	(X/Y/Z)	45_1_20_p0_0-215_filt_butterworth.trc
DataRate	CameraRate	NumFrames	NumMarkers	Units	OrigDataRate	OrigDataStartFrame	OrigNumFrames
60.0	60.0	5	27	m	60.0	188	215
Frame#	Time	RHip			RKnee			RAnkle			RBigToe			RSmallToe			RHeel			LHip			LKnee			LAnkle			LBigToe			LSmallToe			LHeel			Neck			Head			Nose			RShoulder			RElbow			RWrist			RThumb			RIndex			RPinky			LShoulder			LElbow			LWrist			LThumb			LIndex			LPinky			
		X1	Y1	Z1	X2	Y2	Z2	X3	Y3	Z3	X4	Y4	Z4	X5	Y5	Z5	X6	Y6	Z6	X7	Y7	Z7	X8	Y8	Z8	X9	Y9	Z9	X10	Y10	Z10	X11	Y11	Z11	X12	Y12	Z12	X13	Y13	Z13	X14	Y14	Z14	X15	Y15	Z15	X16	Y16	Z16	X17	Y17	Z17	X18	Y18	Z18	X19	Y19	Z19	X20	Y20	Z20	X21	Y21	Z21	X22	Y22	Z22	X23	Y23	Z23	X24	Y24	Z24	X25	Y25	Z25	X26	Y26	Z26	X27	Y27	Z27	
188	3.1333333333333333	0.5723175307679172	0.7029256532786634	0.7352699778777452	0.5663159040094711	0.2330868236075064	0.7454525688937108	0.6028230423612772	-0.20136626765829502	0.7378780961992079	0.5960153340026925	-0.2582301912644345	0.6475596130011245	0.6562848308158475	-0.23152221394358521	0.6320403429886825	0.5842428878405427	-0.2682938359640046	0.7870598995920252	0.3496722621704438	0.6931263384802488	0.7233087779383761	0.40512906364920925	0.22199098911516288	0.7370625664449095	0.41217504988531634	-0.27883754588866266	0.7842585275130306	0.4513800428498618	-0.24716891117020098	0.6080940935439088	0.4005835873907486	-0.2644619336044401	0.6292864355189695	0.42519003358747787	-0.313606683614227	0.8078518185647717	0.43652269925743487	1.2836977166433332	0.6715056005099335	0.3979903032891877	1.523599165230388	0.6831472549912606	0.42091372469192656	1.4160448885717423	0.6006558851929454	0.597119940474014	1.212365153735658	0.6920097655098271	0.6446576506340796	0.9306441018150523	0.6886493834253997	0.587299140036567	0.717469654544781	0.5446395922204306	0.46998187249221945	0.6177941875704505	0.5729729470584496	0.4640697836507732	0.5942124071767704	0.5965610278948552	0.5107603247455987	0.5994354962857665	0.5752976460367836	0.28230344154814063	1.1763902640692687	0.6430964176629724	0.2701200738341609	0.8774514261772929	0.6772123866424722	0.4265740808260115	0.7024781860728645	0.5784799637310922	0.5087020253573931	0.6445376359311589	0.5406911713289669	0.5102136669206133	0.6245036366099885	0.5431328526506908	0.47674373270134907	0.5989557032614665	0.6032328930560855	
189	3.15	0.5731559417701181	0.7027566781411111	0.7348459008878787	0.5654970655679918	0.2365194296901956	0.7438215859624836	0.6024874303325884	-0.20065596980754505	0.7373243905568986	0.5963824777368272	-0.25930779455647024	0.6490803462758542	0.6565792462946158	-0.23088343586594523	0.6313091613515706	0.5839950046356944	-0.267956023245462	0.7864045800621924	0.3499323147092404	0.6916991600238074	0.7249968530765112	0.40605405756767926	0.22459697147732882	0.7343125965996563	0.4123821968701398	-0.2782115461370055	0.7833991533731585	0.45232098462677295	-0.24844141738199388	0.6081919029826838	0.400454544841193	-0.26488845549100065	0.6297121532458501	0.4251492588741622	-0.31314798452150744	0.8081254356873036	0.436840365298981	1.2830037366107725	0.669452707329002	0.39925151560494343	1.5232338699865802	0.6798447678278499	0.42088832148097355	1.4149024233146852	0.6006210697499141	0.5973132021916254	1.2118725734977467	0.691791180587652	0.6444290355291702	0.9292106980370032	0.6865413864173466	0.5861517683228145	0.7131492032709621	0.5516274341720178	0.4730977374711056	0.6075194633870798	0.5917185253823948	0.46802463210610445	0.584132006053381	0.6141845444634616	0.5135852606877992	0.5905031795262118	0.596258988734597	0.2824959966603804	1.1753122278405137	0.6431545877605731	0.2716819260317629	0.8760023211010386	0.6815217689934925	0.42920594763142494	0.696374159682051	0.5910243833958861	0.5091874465187731	0.640607454954349	0.5472754228306493	0.5104931802498887	0.6222161492103935	0.5481395229646948	0.47711544111114645	0.5949446868685158	0.611535577478456	
190	3.1666666666666665	0.573648391160324	0.7023362572922889	0.7352147032257546	0.5646001759558621	0.23957775959945368	0.7421326887042217	0.6020912889003122	-0.20002194531225523	0.7366684066773027	0.5967245791735112	-0.2604156210418189	0.6507322430485075	0.6568243152756734	-0.23052983955219405	0.6310376995266934	0.583890251428586	-0.2679473534772693	0.785839719228358	0.3499758946802102	0.6901615944375177	0.7272887552101089	0.4069093943322166	0.22692027811495677	0.7318403504674212	0.4127180355194565	-0.2774798095123696	0.7823895883314816	0.452886404112702	-0.24851498086169754	0.6072293322038541	0.40040730447255424	-0.2650575526320322	0.6298977263733851	0.42520230386051255	-0.3127861526555998	0.8082063866478909	0.4372407024730889	1.2824931600498746	0.6657335922716285	0.4002596428602174	1.5222691213812618	0.6760903241586631	0.42070966577580404	1.4141939991605152	0.5998376292733124	0.5978031720663386	1.2114719516033117	0.6905630912525882	0.64497620857954	0.9273894128598724	0.6857682172121095	0.5842744892755793	0.7067390103840131	0.56159131946663	0.4766173625964555	0.5979859380365141	0.6065651551611301	0.47303893705320643	0.575768487227951	0.6267110966890435	0.5153395204130705	0.5806681639516083	0.6188273647726843	0.2825725802402705	1.1747662995988595	0.6433781596608243	0.2719521620112209	0.8756281787945824	0.6834288975493152	0.43031344628071805	0.6904822272353714	0.602157296615828	0.5091066866059974	0.6365419190878944	0.5543495180781643	0.5109731263800412	0.6193034543965462	0.5540401186042809	0.4778806872588449	0.5905714628401203	0.6191660830378432	
191	3.183333333333333	0.5738583536344788	0.7015073296525732	0.7361662607397148	0.5636317700383375	0.24218226627460257	0.740354926771093	0.6016588479046479	-0.1994934612922752	0.7358111282567517	0.5970032479047896	-0.26171423544493305	0.6528192629327101	0.6570063087545288	-0.23060013828190246	0.6314108437216547	0.584021873400275	-0.26819535096290054	0.7853046445223691	0.3499204429570526	0.6886744007294066	0.7294987977090585	0.40773382111929013	0.22887372602113132	0.7298018999235795	0.41319462350061475	-0.27662838162604225	0.7812778189304393	0.45293832645796267	-0.2473840853587949	0.605316007188103	0.40044991754701903	-0.2648938585375757	0.6299208365111058	0.4253216997525989	-0.31246792409888224	0.8080313652725987	0.4376596048367637	1.282030579160139	0.6609717593954988	0.4009963587125015	1.520751723824477	0.6714112811613617	0.42050320604161234	1.4139293412320546	0.5979186646900186	0.5984749789228253	1.2110487143428068	0.6881247175049278	0.6461455899879658	0.9252068380150881	0.6856241219865442	0.5816284438724844	0.6988095180691647	0.5736588672239293	0.4792737915782825	0.5902236774038787	0.6169745109984484	0.4774602673890936	0.5699466973795237	0.6344842853229865	0.5155624505205656	0.5707181498830467	0.6408358688774511	0.28256499593787887	1.1743671487616283	0.6437603070192666	0.2713390048375624	0.8761577507739484	0.6834661955168455	0.4299364016873324	0.6856151171005042	0.610746238562359	0.5083941675372048	0.6321529806062562	0.5630291245902433	0.511331418981496	0.6155322466723228	0.5617040989422938	0.47876271365959056	0.5859056986137577	0.626341570411103	
192	3.2	0.5738914026955072	0.700371718006922	0.7373385673470019	0.5626574044432662	0.2443559410663881	0.738562638889914	0.6012422578509232	-0.19906910084282664	0.7347270506180258	0.5971909963568939	-0.2631952499683902	0.6553446682773947	0.6571960811164598	-0.23097914048063414	0.6322804135719884	0.5843606242440879	-0.26850302569725415	0.7846444294032326	0.34981972610149215	0.6873723199519826	0.731156926396566	0.4085133920011603	0.23042913546484495	0.7282838890463466	0.41379311595394325	-0.27567605852064225	0.780105665911664	0.4525381556341785	-0.24547491918216277	0.6027090915112747	0.40054075745291084	-0.26440152962710056	0.6299257388712798	0.4254686514114031	-0.31221052181197667	0.8077142011159731	0.4380080450266387	1.2814557436770189	0.655866166265047	0.4014865444220519	1.518872419652084	0.665782598968745	0.42042637794450255	1.4138941192574332	0.594838760928732	0.5991653840870541	1.2104630932586002	0.6845917876845725	0.6477888604061537	0.9228708029242705	0.6855502619744603	0.578277005366153	0.6904072354240471	0.5866353006576571	0.4801765494899222	0.5848319197094406	0.6235503397324881	0.4799305629155092	0.5667964373603698	0.6389640557770857	0.5138209731000818	0.5619409844143801	0.6597918968753194	0.2826108888537849	1.1736242657929299	0.6440691332198717	0.2703129658356002	0.8771771914498231	0.6825910110281945	0.4282188679202191	0.6820989797453937	0.6165049643344908	0.5069543056156787	0.6274158367765581	0.5737260027873125	0.511086718841345	0.6108845612258919	0.5718529911444004	0.4793023701251383	0.5812382775367085	0.6332397338578564	
